<?xml version="1.0" encoding="UTF-8"?>
<!DOCTYPE svg PUBLIC "-//W3C//DTD SVG 1.1//EN" "http://www.w3.org/Graphics/SVG/1.1/DTD/svg11.dtd">
<!-- Creator: CorelDRAW 2017 -->
<svg xmlns="http://www.w3.org/2000/svg" xml:space="preserve" width="800px" height="800px" version="1.1" style="shape-rendering:geometricPrecision; text-rendering:geometricPrecision; image-rendering:optimizeQuality; fill-rule:evenodd; clip-rule:evenodd"
viewBox="0 0 800 800"
 xmlns:xlink="http://www.w3.org/1999/xlink">
 <defs>
  <style type="text/css">
   <![CDATA[
    .fil0 {fill:none}
    .fil1 {fill:white}
   ]]>
  </style>
 </defs>
 <g id="Слой_x0020_1">
  <metadata id="CorelCorpID_0Corel-Layer"/>
  <polygon class="fil0" points="0,0 800,0 800,800 0,800 "/>
  <g id="_1979562820656">
   <path class="fil1" d="M47.11 190.11l0 365.88c0,26.35 13.09,48.97 35.94,62.1l316.6 181.91 0 -202.71 -176.27 -102.23 0 -202.71 -176.27 -102.24z"/>
   <path class="fil1" d="M752.89 549.46l0 -317.86c0,-26.35 -13.1,-48.97 -35.94,-62.1l-275.19 -158.12c-26.37,-15.15 -56.47,-15.17 -82.86,-0.07l-134.86 77.19 352.58 204.03 0 407 134.71 -78c26.44,-15.3 41.56,-41.52 41.56,-72.07z"/>
  </g>
 </g>
</svg>
