<?xml version="1.0"?>
<svg xmlns="http://www.w3.org/2000/svg" xmlns:xlink="http://www.w3.org/1999/xlink" version="1.1" id="Capa_1" x="0px" y="0px" viewBox="0 0 489.2 489.2" style="enable-background:new 0 0 489.2 489.2;" xml:space="preserve" width="512px" height="512px"><g><g>
	<g>
		<g>
			<path d="M39.5,377.35h160.9v44.1H169c-5.2,0-9.5,4.2-9.5,9.5v27.5c0,5.2,4.2,9.5,9.5,9.5h151.2c5.2,0,9.5-4.2,9.5-9.5v-27.5     c0-5.2-4.2-9.5-9.5-9.5h-31.4v-44.1h160.9c21.8,0,39.5-17.7,39.5-39.5V60.75c0-21.8-17.7-39.5-39.5-39.5H39.5     C17.7,21.25,0,38.95,0,60.75v277.1C0,359.65,17.7,377.35,39.5,377.35z M53.9,75.15h381.4v248H53.9V75.15z M186.1,154.35     l-47.8,47.8l47.8,47.8l-25.4,25.4l-73.1-73.2l73.1-73.1L186.1,154.35z M328.5,128.95l73.1,73.1l-73.1,73.1l-25.4-25.4l47.8-47.8     l-47.8-47.8L328.5,128.95z M262.8,104.05l33.4,13.1l-69.8,177.5l-33.4-13.1L262.8,104.05z" data-original="#000000" class="active-path" data-old_color="#000000" fill="#060F1E"/>
		</g>
	</g>
</g></g> </svg>
