<svg id="icons" enable-background="new 0 0 64 64" height="512" viewBox="0 0 64 64" width="512" xmlns="http://www.w3.org/2000/svg"><path d="m1 58c0 .55.45 1 1 1h60c.55 0 1-.45 1-1v-49h-62z" fill="#e6e9ed"/><path d="m63 7v2h-62v-2c0-1.109.89-2 2-2h58c1.11 0 2 .891 2 2z" fill="#ccd1d9"/><path d="m4.006 5.998h-.01c-.553 0-.995.447-.995 1 0 .552.452 1 1.005 1s1-.448 1-1c0-.553-.447-1-1-1z" fill="#e6e9ed"/><path d="m7.005 5.998h-.01c-.552 0-.995.447-.995 1 0 .552.453 1 1.005 1 .553 0 1-.448 1-1 0-.553-.447-1-1-1z" fill="#e6e9ed"/><path d="m10.008 5.998h-.01c-.553 0-.995.447-.995 1 0 .552.452 1 1.005 1s1-.448 1-1c0-.553-.447-1-1-1z" fill="#e6e9ed"/><path d="m41.03 50h17.97v4l-1 1h-16.97z" fill="#fff"/><path d="m5 21c0-.55.45-1 1-1h18.012c.55 0 1 .45 1 1v33c0 .55-.45 1-1 1h-18.012c-.55 0-1-.45-1-1z" fill="#48cfad"/><path d="m23.01 16.002c0-.55.45-1 1-1h33.99c.55 0 1 .45 1 1v6.002c0 .55-.45 1-1 1h-33.99c-.55 0-1-.45-1-1z" fill="#48cfad"/><path d="m23.01 50h18.021v5h-18.021z" fill="#fff"/><path d="m40.53 15.002h1.001v4.999h-1.001z" fill="#37bc9b"/><path d="m5 49h18.01v1h-18.01z" fill="#37bc9b"/><path d="m23.01 49h35.99v1h-35.99z" fill="#e6e9ed"/><path d="m41.03 44h17.97v5h-17.97z" fill="#fff"/><path d="m23.01 44h18.021v5h-18.021z" fill="#fff"/><path d="m5 43h18.01v1h-18.01z" fill="#37bc9b"/><path d="m23.01 43h35.99v1h-35.99z" fill="#e6e9ed"/><path d="m41.03 38h17.97v5h-17.97z" fill="#fff"/><path d="m23.01 38h18.021v5h-18.021z" fill="#fff"/><path d="m5 37h18.01v1h-18.01z" fill="#37bc9b"/><path d="m23.01 37h35.99v1h-35.99z" fill="#e6e9ed"/><path d="m41.03 32h17.97v5h-17.97z" fill="#fff"/><path d="m23.01 32h18.021v5h-18.021z" fill="#fff"/><path d="m5 31h18.01v1h-18.01z" fill="#37bc9b"/><path d="m23.01 31h35.99v1h-35.99z" fill="#e6e9ed"/><path d="m41.03 26h17.97v5h-17.97z" fill="#fff"/><path d="m23.01 26h18.021v5h-18.021z" fill="#fff"/><path d="m5 25h18.01v1h-18.01z" fill="#37bc9b"/><path d="m23.01 25h35.99v1h-35.99z" fill="#e6e9ed"/><path d="m41.03 20h17.97v5h-17.97z" fill="#fff"/><path d="m23.01 20h18.021v5h-18.021z" fill="#fff"/><g fill="#e6e9ed"><path d="m31 23h2c.275 0 .5-.225.5-.5s-.225-.5-.5-.5h-2c-.275 0-.5.225-.5.5s.225.5.5.5z"/><path d="m31 29h2c.275 0 .5-.225.5-.5s-.225-.5-.5-.5h-2c-.275 0-.5.225-.5.5s.225.5.5.5z"/><path d="m31 35h2c.275 0 .5-.225.5-.5s-.225-.5-.5-.5h-2c-.275 0-.5.225-.5.5s.225.5.5.5z"/><path d="m31 41h2c.275 0 .5-.225.5-.5s-.225-.5-.5-.5h-2c-.275 0-.5.225-.5.5s.225.5.5.5z"/><path d="m31 47h2c.275 0 .5-.225.5-.5s-.225-.5-.5-.5h-2c-.275 0-.5.225-.5.5s.225.5.5.5z"/><path d="m31 53h2c.275 0 .5-.225.5-.5s-.225-.5-.5-.5h-2c-.275 0-.5.225-.5.5s.225.5.5.5z"/><path d="m49.016 23h2c.275 0 .5-.225.5-.5s-.225-.5-.5-.5h-2c-.275 0-.5.225-.5.5s.224.5.5.5z"/><path d="m49.016 29h2c.275 0 .5-.225.5-.5s-.225-.5-.5-.5h-2c-.275 0-.5.225-.5.5s.224.5.5.5z"/><path d="m49.016 35h2c.275 0 .5-.225.5-.5s-.225-.5-.5-.5h-2c-.275 0-.5.225-.5.5s.224.5.5.5z"/><path d="m49.016 41h2c.275 0 .5-.225.5-.5s-.225-.5-.5-.5h-2c-.275 0-.5.225-.5.5s.224.5.5.5z"/><path d="m49.016 47h2c.275 0 .5-.225.5-.5s-.225-.5-.5-.5h-2c-.275 0-.5.225-.5.5s.224.5.5.5z"/><path d="m49.016 53h2c.275 0 .5-.225.5-.5s-.225-.5-.5-.5h-2c-.275 0-.5.225-.5.5s.224.5.5.5z"/></g><path d="m10.001 23h7.996c.275 0 .5-.225.5-.5s-.225-.5-.5-.5h-7.996c-.275 0-.5.225-.5.5s.225.5.5.5z" fill="#37bc9b"/><path d="m10.001 29h7.996c.275 0 .5-.225.5-.5s-.225-.5-.5-.5h-7.996c-.275 0-.5.225-.5.5s.225.5.5.5z" fill="#37bc9b"/><path d="m28.021 18.001h7.996c.275 0 .5-.225.5-.5s-.225-.5-.5-.5h-7.996c-.275 0-.5.225-.5.5s.225.5.5.5z" fill="#37bc9b"/><path d="m46.017 18.001h7.996c.275 0 .5-.225.5-.5s-.225-.5-.5-.5h-7.996c-.275 0-.5.225-.5.5s.224.5.5.5z" fill="#37bc9b"/><path d="m10.001 35h7.996c.275 0 .5-.225.5-.5s-.225-.5-.5-.5h-7.996c-.275 0-.5.225-.5.5s.225.5.5.5z" fill="#37bc9b"/><path d="m10.001 41h7.996c.275 0 .5-.225.5-.5s-.225-.5-.5-.5h-7.996c-.275 0-.5.225-.5.5s.225.5.5.5z" fill="#37bc9b"/><path d="m10.001 47h7.996c.275 0 .5-.225.5-.5s-.225-.5-.5-.5h-7.996c-.275 0-.5.225-.5.5s.225.5.5.5z" fill="#37bc9b"/><path d="m10.001 53h7.996c.275 0 .5-.225.5-.5s-.225-.5-.5-.5h-7.996c-.275 0-.5.225-.5.5s.225.5.5.5z" fill="#37bc9b"/><path d="m40.53 20.001h1.001v34.999h-1.001z" fill="#e6e9ed"/><circle cx="58" cy="54" fill="#fff" r="1"/></svg>