<svg id="icons" enable-background="new 0 0 64 64" height="512" viewBox="0 0 64 64" width="512" xmlns="http://www.w3.org/2000/svg"><path d="m1 58c0 .55.45 1 1 1h60c.55 0 1-.45 1-1v-49h-62z" fill="#e6e9ed"/><path d="m63 7v2h-62v-2c0-1.109.89-2 2-2h58c1.11 0 2 .891 2 2z" fill="#ccd1d9"/><g fill="#e6e9ed"><path d="m4.006 5.998h-.01c-.552 0-.995.447-.995 1 0 .552.453 1 1.005 1 .553 0 1-.448 1-1 0-.553-.447-1-1-1z"/><path d="m7.005 5.998h-.01c-.553 0-.995.447-.995 1 0 .552.452 1 1.005 1s1-.448 1-1c0-.553-.447-1-1-1z"/><path d="m10.008 5.998h-.01c-.552 0-.995.447-.995 1 0 .552.453 1 1.005 1 .553 0 1-.448 1-1 0-.553-.447-1-1-1z"/></g><path d="m32 59h30c.55 0 1-.45 1-1v-24h-31z" fill="#5d9cec"/><path d="m39 38.49c1.375 0 2.5 1.124 2.5 2.5 0 1.387-1.125 2.5-2.5 2.5-1.388 0-2.5-1.113-2.5-2.5 0-1.376 1.112-2.5 2.5-2.5z" fill="#ffce54"/><path d="m52.678 43.287c-.031-.031-.051-.07-.088-.098-.012-.009-.025-.01-.037-.018-.065-.043-.136-.069-.209-.096-.051-.02-.099-.045-.151-.055-.067-.014-.133-.009-.201-.008-.062 0-.121-.005-.181.007-.058.011-.109.037-.164.059-.069.026-.137.051-.199.093-.012.008-.026.009-.038.018-.037.027-.057.066-.089.098-.042.04-.093.068-.129.117l-11.437 15.596h2.48 19.527.238c.55 0 1-.45 1-1v-.696l-10.192-13.9c-.037-.049-.087-.077-.13-.117z" fill="#656d78"/><path d="m44.81 47.418c-.035-.049-.085-.076-.127-.116-.034-.033-.056-.075-.096-.104-.011-.008-.023-.009-.035-.016-.063-.043-.133-.066-.203-.094-.054-.021-.104-.047-.159-.058-.06-.012-.119-.006-.181-.007-.068 0-.136-.006-.203.008-.05.01-.095.034-.144.053-.075.027-.148.053-.216.098-.01.008-.022.008-.033.016-.039.028-.061.069-.095.103-.042.04-.092.069-.128.118l-8.422 11.581h2.473 2.515l6.767-9.228z" fill="#545c66"/><path d="m1 9h31v25h-31z" fill="#5d9cec"/><path d="m8 13.49c1.375 0 2.5 1.124 2.5 2.5 0 1.387-1.125 2.5-2.5 2.5-1.388 0-2.5-1.113-2.5-2.5 0-1.376 1.112-2.5 2.5-2.5z" fill="#ffce54"/><path d="m32 32.304-10.192-13.9c-.036-.049-.087-.077-.13-.117-.031-.031-.051-.07-.088-.098-.012-.009-.025-.01-.037-.018-.065-.043-.136-.069-.209-.096-.051-.02-.099-.045-.151-.055-.067-.014-.133-.009-.201-.008-.062 0-.121-.005-.181.007-.058.011-.109.037-.164.059-.069.026-.137.051-.199.093-.012.008-.026.009-.038.018-.037.027-.057.066-.089.098-.042.04-.093.068-.129.117l-11.437 15.596h2.48 19.527 1.238z" fill="#656d78"/><path d="m13.81 22.418c-.035-.049-.085-.076-.127-.116-.034-.033-.056-.075-.096-.104-.011-.008-.023-.009-.035-.016-.063-.043-.133-.066-.203-.094-.054-.021-.104-.047-.159-.058-.06-.012-.119-.006-.181-.007-.068 0-.136-.006-.203.008-.05.01-.095.034-.144.053-.075.027-.148.053-.216.098-.01.008-.022.008-.033.016-.039.028-.061.069-.095.103-.042.04-.092.069-.128.118l-8.422 11.581h2.472 2.515l6.767-9.228z" fill="#545c66"/><path d="m58.026 15.995h-20.996c-.553 0-1-.447-1-1s.447-1 1-1h20.996c.553 0 1 .447 1 1s-.447 1-1 1z" fill="#ccd1d9"/><path d="m58.026 18.995h-20.996c-.553 0-1-.447-1-1s.447-1 1-1h20.996c.553 0 1 .447 1 1s-.447 1-1 1z" fill="#ccd1d9"/><path d="m48.017 21.995h-10.987c-.553 0-1-.447-1-1s.447-1 1-1h10.986c.553 0 1 .447 1 1s-.447 1-.999 1z" fill="#ccd1d9"/><path d="m48.015 24.996h-10.999c-.553 0-1-.554-1-.001v1.999c0 .553.447 1 1 1h10.999c.553 0 1-.447 1-1v-1.999c0-.553-.448.001-1 .001z" fill="#4a89dc"/><path d="m48.015 23.996h-10.999c-.553 0-1 .447-1 1v.998c0 .553.447 1 1 1h10.999c.553 0 1-.447 1-1v-.998c0-.553-.448-1-1-1z" fill="#5d9cec"/><path d="m27.006 42.022h-20.996c-.553 0-1-.447-1-1s.447-1 1-1h20.996c.553 0 1 .447 1 1s-.447 1-1 1z" fill="#ccd1d9"/><path d="m27.006 45.022h-20.996c-.553 0-1-.447-1-1s.447-1 1-1h20.996c.553 0 1 .447 1 1s-.447 1-1 1z" fill="#ccd1d9"/><path d="m16.996 48.022h-10.986c-.553 0-1-.447-1-1s.447-1 1-1h10.986c.553 0 1 .447 1 1s-.447 1-1 1z" fill="#ccd1d9"/><path d="m16.994 51.023h-10.999c-.553 0-1-.554-1-.001v1.999c0 .553.447 1 1 1h10.999c.553 0 1-.447 1-1v-1.999c0-.552-.447.001-1 .001z" fill="#4a89dc"/><path d="m16.994 50.023h-10.999c-.553 0-1 .447-1 1v.998c0 .553.447 1 1 1h10.999c.553 0 1-.447 1-1v-.998c0-.552-.447-1-1-1z" fill="#5d9cec"/></svg>