<?xml version="1.0"?>
<svg xmlns="http://www.w3.org/2000/svg" xmlns:xlink="http://www.w3.org/1999/xlink" version="1.1" id="Capa_1" x="0px" y="0px" viewBox="0 0 485.803 485.803" style="enable-background:new 0 0 485.803 485.803;" xml:space="preserve" width="512px" height="512px" class=""><g><g>
	<g>
		<path d="M257.8,388.5c-6.3-10.5-10.7-21.4-13.4-33c-2.1-9.3-3.2-18.4-3.3-27.3c-0.2-22.6-0.2-45.6-0.2-67.7c0-7.9,0-15.7,0-23.6    c0-3.7,0-12.5,6.6-19.9c7.1-8,16.6-8.6,20.2-8.9c29-1.8,57.2-12.8,88.7-34.5c3.3-2.3,7.7-5.3,13.7-6.3    C347.3,105.1,280.6,60,201.9,60c-21.1,0-41.3,3.2-60.1,9.2C133.1,56.3,116.4,40.9,85,37c-9.3-1.2-15.7,9-10.8,16.9    c7.1,11.3,13.2,27.1,8.2,44.4c-0.3,0.9-0.4,1.8-0.4,2.7c-23.4,18.9-41,43.4-50,70.9l0,0H18.5C8.3,171.9,0,180.2,0,190.4v45.7    c0,10.2,8.3,18.5,18.5,18.5h12.8c8,26.1,23.6,49.5,44.6,68.2l0,0c0.2,0.2,0.4,0.3,0.6,0.5c0.7,0.6,1.4,1.2,2.1,1.8    c18.9,17.1,20.6,37.1,20.7,42.1v15.1c0,5.5,4.5,10,10,10h61.2c5.5,0,10-4.5,10-10v-14.4c7,0.7,14.1,1.1,21.3,1.1    c9.2,0,18.3-0.6,27.2-1.8v15.1c0,5.5,4.5,10,10,10h21.1c-0.1-0.2-0.3-0.4-0.4-0.6C259.1,390.7,258.4,389.6,257.8,388.5z M95,175.2    c-8.4,0-15.1-6.8-15.1-15.1c0-8.4,6.8-15.1,15.1-15.1c8.4,0,15.1,6.8,15.1,15.1C110.1,168.4,103.3,175.2,95,175.2z" data-original="#000000" class="active-path" data-old_color="#000000" fill="#060F1E"/>
		<path d="M485.8,286.4c0-16.9,0-33.8,0-50.6c0-4.2-1.5-5.6-5.7-6.1c-8.7-1.1-17.6-1.9-26.1-3.7c-27.3-6-51.6-18.7-74.4-34.5    c-2.7-1.9-4.1-2.8-5.5-2.8s-2.8,0.9-5.5,2.8c-30.1,20.8-62.4,35.9-99.6,38.3c-5.7,0.4-6.6,1.6-6.6,7.2c0,30.4-0.2,60.7,0.1,91.1    c0.1,7.6,1.1,15.3,2.8,22.7c4.4,19.4,15,35.6,28.9,49.6c22,22.2,48.5,37.2,77.4,48.1c0.7,0.2,1.4,0.4,2.2,0.4    c1.2,0,2.3-0.2,3.3-0.6c10-4.4,20.2-8.5,29.8-13.6c22.9-12.1,43.5-27.4,59-48.5c10.9-14.8,18.2-31.2,19-49.8    C485.9,319.6,485.8,303,485.8,286.4z M400.8,355.2c-4,4.9-9.3,8.2-15.5,9.9c-2.7,0.7-3.9,2.1-3.8,4.9c0.1,2.7,0,5.5,0,8.2    c0,2.4-1.2,3.8-3.7,3.8c-1.6,0-3.1,0.1-4.7,0.1c-1.4,0-2.8,0-4.1,0c-2.6,0-3.8-1.5-3.8-4c0-2,0-4-0.1-6c0-4.4-0.2-4.6-4.4-5.3    c-5.4-0.9-10.8-2.1-15.7-4.5c-3.9-1.9-4.3-2.9-3.2-7c0.8-3,1.7-6.1,2.6-9.1c0.7-2.2,1.3-3.2,2.5-3.2c0.7,0,1.6,0.3,2.7,0.9    c5.5,2.9,11.3,4.5,17.5,5.2c1,0.1,2.1,0.2,3.1,0.2c2.9,0,5.7-0.5,8.3-1.7c6.8-3,7.9-10.9,2.1-15.6c-2-1.6-4.2-2.8-6.5-3.8    c-6-2.6-12.2-4.6-17.9-8c-9.2-5.5-15-13-14.3-24.2c0.8-12.6,7.9-20.5,19.4-24.7c4.8-1.7,4.8-1.7,4.8-6.6c0-1.7,0-3.4,0-5.1    c0.1-3.8,0.7-4.4,4.5-4.5c0.4,0,0.9,0,1.3,0c0.7,0,1.5,0,2.2,0c0.3,0,0.6,0,0.9,0c7.1,0,7.1,0.3,7.1,8c0,5.6,0,5.7,5.6,6.5    c4.3,0.7,8.4,1.9,12.4,3.7c2.2,1,3,2.5,2.3,4.8c-1,3.4-1.9,6.9-3,10.3c-0.7,2.1-1.3,3-2.6,3c-0.7,0-1.5-0.3-2.6-0.8    c-5.5-2.7-11.3-4-17.3-4c-0.8,0-1.6,0-2.3,0.1c-1.8,0.1-3.6,0.3-5.2,1.1c-5.9,2.6-6.9,9.1-1.8,13.2c2.6,2,5.5,3.5,8.5,4.8    c5.3,2.2,10.6,4.3,15.5,7C407.7,321.6,412,341.6,400.8,355.2z" data-original="#000000" class="active-path" data-old_color="#000000" fill="#060F1E"/>
	</g>
</g></g> </svg>
