<svg id="icons" enable-background="new 0 0 64 64" height="512" viewBox="0 0 64 64" width="512" xmlns="http://www.w3.org/2000/svg"><path d="m1 58c0 .55.45 1 1 1h60c.55 0 1-.45 1-1v-49h-62z" fill="#e6e9ed"/><path d="m63 7v2h-62v-2c0-1.109.89-2 2-2h58c1.11 0 2 .891 2 2z" fill="#ccd1d9"/><path d="m4.006 5.998h-.01c-.553 0-.995.447-.995 1 0 .552.452 1 1.005 1s1-.448 1-1c0-.553-.447-1-1-1z" fill="#e6e9ed"/><path d="m7.005 5.998h-.01c-.552 0-.995.447-.995 1 0 .552.453 1 1.005 1 .553 0 1-.448 1-1 0-.553-.447-1-1-1z" fill="#e6e9ed"/><path d="m10.008 5.998h-.01c-.553 0-.995.447-.995 1 0 .552.452 1 1.005 1s1-.448 1-1c0-.553-.447-1-1-1z" fill="#e6e9ed"/><path d="m44 28c-.55 0-1 .451-1 1v21.001c0 .55.45 1 1 1h14c.55 0 1-.45 1-1v-21.001c0-.549-.45-1-1-1z" fill="#ccd1d9"/><path d="m25 23c-.55 0-1 .451-1 1v31.001c0 .55.45 1 1 1h14c.55 0 1-.45 1-1v-31.001c0-.549-.45-1-1-1z" fill="#ccd1d9"/><path d="m6 28c-.55 0-1 .451-1 1v21.001c0 .55.45 1 1 1h14c.55 0 1-.45 1-1v-21.001c0-.549-.45-1-1-1z" fill="#ccd1d9"/><path d="m44 27c-.55 0-1 .45-1 1v21c0 .55.45 1 1 1h14c.55 0 1-.45 1-1v-21c0-.55-.45-1-1-1z" fill="#fff"/><path d="m25 22c-.55 0-1 .45-1 1v31c0 .55.45 1 1 1h14c.55 0 1-.45 1-1v-31c0-.55-.45-1-1-1z" fill="#fff"/><path d="m6 27c-.55 0-1 .45-1 1v21c0 .55.45 1 1 1h14c.55 0 1-.45 1-1v-21c0-.55-.45-1-1-1z" fill="#fff"/><path d="m53.5 44.001c.83 0 1.5.67 1.5 1.5 0 .82-.67 1.5-1.5 1.5h-5c-.83 0-1.5-.68-1.5-1.5 0-.83.67-1.5 1.5-1.5z" fill="#4a89dc"/><path d="m34.5 52.001h-5c-.83 0-1.5-.67-1.5-1.5s.67-1.5 1.5-1.5h5c.83 0 1.5.67 1.5 1.5s-.67 1.5-1.5 1.5z" fill="#4a89dc"/><path d="m15.5 44.001c.83 0 1.5.67 1.5 1.5 0 .82-.67 1.5-1.5 1.5h-5c-.83 0-1.5-.68-1.5-1.5 0-.83.67-1.5 1.5-1.5z" fill="#4a89dc"/><path d="m51.002 15.002h-38c-.553 0-1-.447-1-1s.447-1 1-1h38c.553 0 1 .447 1 1s-.447 1-1 1z" fill="#ccd1d9"/><path d="m44.002 18.001h-24c-.553 0-1-.448-1-1s.447-1 1-1h24c.553 0 1 .448 1 1s-.447 1-1 1z" fill="#ccd1d9"/><path d="m12.999 31.998h-4c-.553 0-1-.447-1-1s.447-1 1-1h4c.553 0 1 .447 1 1s-.447 1-1 1z" fill="#656d78"/><path d="m17 30.998h-1c-.553 0-1-.447-1-1s.447-1 1-1h1c.553 0 1 .447 1 1s-.447 1-1 1z" fill="#a0d468"/><path d="m17.001 32.998c-.367 0-.72-.202-.896-.553l-1-2c-.247-.494-.047-1.095.447-1.342.493-.248 1.095-.047 1.342.447l1 2c.247.494.047 1.095-.447 1.342-.143.073-.296.106-.446.106z" fill="#a0d468"/><path d="m17 32.998h-1c-.553 0-1-.447-1-1s.447-1 1-1h1c.553 0 1 .447 1 1s-.447 1-1 1z" fill="#a0d468"/><path d="m9.031 39.997c-.553 0-1.005-.447-1.005-1s.442-1 .994-1h.011c.552 0 1 .447 1 1s-.448 1-1 1z" fill="#ccd1d9"/><path d="m16.995 39.997h-4.994c-.553 0-1-.447-1-1s.447-1 1-1h4.994c.553 0 1 .447 1 1s-.447 1-1 1z" fill="#ccd1d9"/><path d="m9.031 36.996c-.553 0-1.005-.447-1.005-1s.442-1 .994-1h.011c.552 0 1 .447 1 1s-.448 1-1 1z" fill="#ccd1d9"/><path d="m16.995 36.996h-4.994c-.553 0-1-.447-1-1s.447-1 1-1h4.994c.553 0 1 .447 1 1s-.447 1-1 1z" fill="#ccd1d9"/><path d="m50.998 31.998h-4c-.553 0-1-.447-1-1s.447-1 1-1h4c.553 0 1 .447 1 1s-.447 1-1 1z" fill="#656d78"/><path d="m54.999 30.998h-1c-.553 0-1-.447-1-1s.447-1 1-1h1c.553 0 1 .447 1 1s-.447 1-1 1z" fill="#a0d468"/><path d="m55 32.998c-.367 0-.72-.202-.896-.553l-1-2c-.247-.494-.047-1.095.447-1.342.494-.248 1.094-.047 1.342.447l1 2c.247.494.047 1.095-.447 1.342-.143.073-.296.106-.446.106z" fill="#a0d468"/><path d="m54.999 32.998h-1c-.553 0-1-.447-1-1s.447-1 1-1h1c.553 0 1 .447 1 1s-.447 1-1 1z" fill="#a0d468"/><path d="m47.03 39.997c-.553 0-1.005-.447-1.005-1s.442-1 .994-1h.011c.552 0 1 .447 1 1s-.448 1-1 1z" fill="#ccd1d9"/><path d="m54.994 39.997h-4.994c-.553 0-1-.447-1-1s.447-1 1-1h4.994c.553 0 1 .447 1 1s-.447 1-1 1z" fill="#ccd1d9"/><path d="m47.03 36.996c-.553 0-1.005-.447-1.005-1s.442-1 .994-1h.011c.552 0 1 .447 1 1s-.448 1-1 1z" fill="#ccd1d9"/><path d="m54.994 36.996h-4.994c-.553 0-1-.447-1-1s.447-1 1-1h4.994c.553 0 1 .447 1 1s-.447 1-1 1z" fill="#ccd1d9"/><path d="m31.998 26.996h-4c-.553 0-1-.447-1-1s.447-1 1-1h4c.553 0 1 .447 1 1s-.447 1-1 1z" fill="#656d78"/><path d="m35.999 25.996h-1c-.553 0-1-.447-1-1s.447-1 1-1h1c.553 0 1 .447 1 1s-.447 1-1 1z" fill="#a0d468"/><path d="m36 27.996c-.367 0-.72-.202-.896-.553l-1-2c-.247-.494-.047-1.095.447-1.342.494-.246 1.095-.047 1.342.447l1 2c.247.494.047 1.095-.447 1.342-.143.073-.296.106-.446.106z" fill="#a0d468"/><path d="m35.999 27.996h-1c-.553 0-1-.447-1-1s.447-1 1-1h1c.553 0 1 .447 1 1s-.447 1-1 1z" fill="#a0d468"/><g fill="#ccd1d9"><path d="m28.03 34.992c-.553 0-1.005-.447-1.005-1s.442-1 .994-1h.011c.552 0 1 .447 1 1s-.448 1-1 1z"/><path d="m35.994 34.992h-4.994c-.553 0-1-.447-1-1s.447-1 1-1h4.994c.553 0 1 .447 1 1s-.447 1-1 1z"/><path d="m28.03 37.992c-.553 0-1.005-.447-1.005-1s.442-1 .994-1h.011c.552 0 1 .447 1 1s-.448 1-1 1z"/><path d="m35.994 37.992h-4.994c-.553 0-1-.447-1-1s.447-1 1-1h4.994c.553 0 1 .447 1 1s-.447 1-1 1z"/><path d="m28.03 40.992c-.553 0-1.005-.447-1.005-1s.442-1 .994-1h.011c.552 0 1 .447 1 1s-.448 1-1 1z"/><path d="m35.994 40.992h-4.994c-.553 0-1-.447-1-1s.447-1 1-1h4.994c.553 0 1 .447 1 1s-.447 1-1 1z"/><path d="m28.03 43.992c-.553 0-1.005-.447-1.005-1s.442-1 .994-1h.011c.552 0 1 .447 1 1s-.448 1-1 1z"/><path d="m35.994 43.992h-4.994c-.553 0-1-.447-1-1s.447-1 1-1h4.994c.553 0 1 .447 1 1s-.447 1-1 1z"/><path d="m28.03 31.992c-.553 0-1.005-.447-1.005-1s.442-1 .994-1h.011c.552 0 1 .447 1 1s-.448 1-1 1z"/><path d="m35.994 31.992h-4.994c-.553 0-1-.447-1-1s.447-1 1-1h4.994c.553 0 1 .447 1 1s-.447 1-1 1z"/></g><path d="m9 44.5h8v1.001h-8z" fill="#4a89dc"/><path d="m28 49.499h8v1.001h-8z" fill="#4a89dc"/><path d="m47 44.5h8v1.001h-8z" fill="#4a89dc"/><path d="m53.5 43c.83 0 1.5.67 1.5 1.5 0 .82-.67 1.5-1.5 1.5h-5c-.83 0-1.5-.68-1.5-1.5 0-.83.67-1.5 1.5-1.5z" fill="#5d9cec"/><path d="m34.5 51h-5c-.83 0-1.5-.67-1.5-1.5s.67-1.5 1.5-1.5h5c.83 0 1.5.67 1.5 1.5s-.67 1.5-1.5 1.5z" fill="#5d9cec"/><path d="m15.5 43c.83 0 1.5.67 1.5 1.5 0 .82-.67 1.5-1.5 1.5h-5c-.83 0-1.5-.68-1.5-1.5 0-.83.67-1.5 1.5-1.5z" fill="#5d9cec"/></svg>